DBRep_DrawableShape

CASCADE Topology V1, (c) Matra-Datavision
Locations 1
1
              1               0               0               5 
              0               1               0               5 
              0               0               1               4 
Curve2ds 4
1 0 1.5707963267948966 1 0 
1 6.2831853071795862 -6.2831853071795862 0 1 
1 0 -6.2831853071795862 0 1 
1 0 -1.5707963267948966 1 0 
Curves 1
2 0 0 0 -2.4492935982947064e-16 -1 0 1 -2.4492935982947064e-16 0 0 0 1 3
Polygon3D 0
PolygonOnTriangulations 4
2 1 2 
p 0.100000001490116 1 0 6.28318530717959 
13 3 4 5 6 7 8 9 10 11 12 13 14 2 
p 0.100000001490116 1 4.71238898038469 4.97418836818384 5.23598775598299 5.49778714378214 5.75958653158129 6.02138591938044 6.28318530717958 6.54498469497873 6.80678408277788 7.06858347057703 7.33038285837618 7.59218224617533 7.85398163397448 
13 15 16 17 18 19 20 21 22 23 24 25 26 1 
p 0.100000001490116 1 4.71238898038469 4.97418836818384 5.23598775598299 5.49778714378214 5.75958653158129 6.02138591938044 6.28318530717958 6.54498469497873 6.80678408277788 7.06858347057703 7.33038285837618 7.59218224617533 7.85398163397448 
2 15 3 
p 0.100000001490116 1 0 6.28318530717959 
Surfaces 1
4 0 0 0 0 0 1 1 0 -0 -0 1 0 3
Triangulations 1
434 840 1 0.0882915328446651
0 0 3 0 0 3 0 0 -3 0.776457135307561 0 -2.89777747886721 1.5 0 -2.59807621135332 2.12132034355964 -8.88178419700125e-16 -2.12132034355965 2.59807621135331 -8.88178419700125e-16 -1.5 2.8977774788672 -8.88178419700125e-16 -0.776457135307567 3 -8.88178419700125e-16 -6.21724893790088e-15 2.89777747886721 -8.88178419700125e-16 0.776457135307556 2.59807621135332 -8.88178419700125e-16 1.49999999999999 2.12132034355965 -8.88178419700125e-16 2.12132034355964 1.50000000000001 0 2.59807621135331 0.776457135307573 0 2.8977774788672 0 0 -3 0.776457135307561 0 -2.89777747886721 1.5 0 -2.59807621135332 2.12132034355964 -8.88178419700125e-16 -2.12132034355965 2.59807621135331 -8.88178419700125e-16 -1.5 2.8977774788672 -8.88178419700125e-16 -0.776457135307567 3 -8.88178419700125e-16 -6.21724893790088e-15 2.89777747886721 -8.88178419700125e-16 0.776457135307556 2.59807621135332 -8.88178419700125e-16 1.49999999999999 2.12132034355965 -8.88178419700125e-16 2.12132034355964 1.50000000000001 0 2.59807621135331 0.776457135307573 0 2.8977774788672 0.96418141452981 0.350933335321533 -2.81907786235772 0.513030214988503 0.888594398178071 -2.81907786235772 1.70748048663651 0.896154890771881 -2.29813332935693 -0.178173523841654 1.0104722665004 -2.81907786235772 1.09543494209553 1.58701149590511 -2.29813332935693 2.55383902668898 0.477395251086874 -1.5 -0.786007890688155 0.659538931178863 -2.81907786235772 0.23243845374261 1.91430289288831 -2.29813332935693 2.20892891482406 1.36771087926293 -1.5 -0.68380688317571 1.80305056696154 -2.29813332935693 1.5656907129145 2.07330957444692 -1.5 -1.02606042997701 0 -2.81907786235772 0.710997304434096 2.4988963229969 -1.5 -1.44340030392476 1.27874108525875 -2.29813332935693 2.77624973519497 1.0104722665004 -0.520944533000791 -0.239720229782201 2.58699327626362 -1.5 -0.786007890688155 -0.659538931178862 -2.81907786235772 2.26321952020647 1.89906666467847 -0.520944533000791 -1.87232810990399 0.461487431423837 -2.29813332935693 -1.15806221863076 2.32570245254633 -1.5 1.47721162951831 2.55860559585733 -0.520944533000791 2.90953893117886 0.513030214988503 0.520944533000791 -1.87232810990399 -0.461487431423836 -2.29813332935693 -1.92000148780897 1.75031262545048 -1.5 -0.178173523841654 -1.0104722665004 -2.81907786235772 0.513030214988503 2.90953893117886 -0.520944533000791 2.55860559585733 1.47721162951831 0.520944533000791 -2.42263391696305 0.938533379470479 -1.5 -0.513030214988503 2.90953893117886 -0.520944533000791 -1.44340030392476 -1.27874108525875 -2.29813332935693 1.89906666467847 2.26321952020647 0.520944533000791 0.513030214988503 -0.888594398178071 -2.81907786235772 -2.59807621135332 1.77635683940025e-15 -1.5 -1.47721162951831 2.55860559585733 -0.520944533000791 -0.683806883175711 -1.80305056696154 -2.29813332935693 1.0104722665004 2.77624973519497 0.520944533000791 -2.26321952020647 1.89906666467847 -0.520944533000791 -2.42263391696305 -0.938533379470476 -1.5 2.42263391696305 0.938533379470478 1.5 0 2.95442325903662 0.520944533000791 0.232438453742608 -1.91430289288831 -2.29813332935693 0.96418141452981 -0.350933335321533 -2.81907786235772 -2.77624973519497 1.0104722665004 -0.520944533000791 -1.92000148780897 -1.75031262545048 -1.5 1.92000148780897 1.75031262545048 1.5 -1.0104722665004 2.77624973519497 0.520944533000791 -2.95442325903662 0 -0.520944533000791 -1.15806221863077 -2.32570245254632 -1.5 1.15806221863077 2.32570245254633 1.5 1.09543494209553 -1.58701149590511 -2.29813332935693 -1.89906666467847 2.26321952020647 0.520944533000791 1.87232810990399 0.461487431423836 2.29813332935693 -2.77624973519497 -1.0104722665004 -0.520944533000791 -0.239720229782203 -2.58699327626362 -1.5 0.239720229782201 2.58699327626362 1.5 -2.55860559585733 1.47721162951831 0.520944533000791 1.70748048663651 -0.896154890771884 -2.29813332935693 -2.26321952020647 -1.89906666467847 -0.520944533000791 1.44340030392476 1.27874108525875 2.29813332935693 0.710997304434095 -2.49889632299691 -1.5 -0.710997304434097 2.4988963229969 1.5 -2.90953893117886 0.513030214988503 0.520944533000791 -1.47721162951831 -2.55860559585733 -0.520944533000791 1.5656907129145 -2.07330957444692 -1.5 -1.5656907129145 2.07330957444692 1.5 0.683806883175711 1.80305056696154 2.29813332935693 -2.90953893117886 -0.513030214988503 0.520944533000791 -0.513030214988506 -2.90953893117886 -0.520944533000791 2.20892891482406 -1.36771087926294 -1.5 -2.20892891482406 1.36771087926293 1.5 -2.55860559585733 -1.47721162951831 0.520944533000791 -0.232438453742609 1.91430289288831 2.29813332935693 0.5130302149885 -2.90953893117886 -0.520944533000791 0.786007890688154 0.659538931178862 2.81907786235772 2.55383902668898 -0.477395251086877 -1.5 -2.55383902668898 0.477395251086875 1.5 -1.89906666467847 -2.26321952020647 0.520944533000791 1.47721162951831 -2.55860559585733 -0.520944533000791 -1.09543494209553 1.58701149590511 2.29813332935693 -1.0104722665004 -2.77624973519497 0.520944533000791 -2.55383902668898 -0.477395251086872 1.5 2.26321952020646 -1.89906666467847 -0.520944533000791 0.178173523841654 1.0104722665004 2.81907786235772 -3.5527136788005e-15 -2.95442325903662 0.520944533000791 -2.20892891482407 -1.36771087926293 1.5 -1.70748048663651 0.896154890771881 2.29813332935693 2.77624973519497 -1.0104722665004 -0.520944533000791 1.01047226650039 -2.77624973519497 0.520944533000791 -1.5656907129145 -2.07330957444692 1.5 -1.92836282905962 0 2.29813332935693 -0.513030214988502 0.888594398178071 2.81907786235772 1.89906666467846 -2.26321952020647 0.520944533000791 -0.7109973044341 -2.4988963229969 1.5 -1.70748048663651 -0.89615489077188 2.29813332935693 2.55860559585733 -1.47721162951832 0.520944533000791 0.239720229782198 -2.58699327626362 1.5 -0.964181414529809 0.350933335321533 2.81907786235772 2.90953893117886 -0.513030214988511 0.520944533000791 -1.09543494209553 -1.58701149590511 2.29813332935693 1.15806221863076 -2.32570245254633 1.5 1.92000148780896 -1.75031262545048 1.5 -0.964181414529809 -0.350933335321533 2.81907786235772 -0.232438453742611 -1.91430289288831 2.29813332935693 2.42263391696305 -0.938533379470482 1.5 0.683806883175708 -1.80305056696154 2.29813332935693 -0.513030214988503 -0.888594398178071 2.81907786235772 1.44340030392475 -1.27874108525876 2.29813332935693 0.178173523841654 -1.0104722665004 2.81907786235772 1.87232810990399 -0.46148743142384 2.29813332935693 0.786007890688154 -0.659538931178862 2.81907786235772 0.513030214988503 0.0904610688211376 -2.95442325903662 0.451151199541306 0.260472266500395 -2.95442325903662 0.334856691146849 0.399066664678467 -2.95442325903662 0.178173523841655 0.489527733499605 -2.95442325903662 0 0.520944533000791 -2.95442325903662 1.08180367101572 1.0390865302644 -2.59807621135332 0.475001990702209 1.42280466292072 -2.59807621135332 2.28920276036676 0.651334341863322 -1.82628428702616 1.66494423114898 1.58410148243884 -1.92836282905962 -0.868593419566318 1.22292496559932 -2.59807621135332 2.66583307671561 0.75849490600031 -1.14805029709527 -1.33742284638255 0.679190790554456 -2.59807621135332 2.80001626635485 1.01912257641435 -0.348278742375692 2.80835041998858 1.02215596026483 -0.261467228242977 -1.39793477262208 1.824060078779 -1.92836282905962 2.75464832064082 1.18823929811747 -8.88178419700125e-16 -1.33742284638255 -0.679190790554456 -2.59807621135332 0 -0.520944533000791 -2.95442325903662 2.88675056069718 0.773502481488899 0.261467228242973 0.178173523841654 -0.489527733499605 -2.95442325903662 2.82908858214012 0.758052000900555 0.649318841814306 -0.868593419566318 -1.22292496559932 -2.59807621135332 0.334856691146849 -0.399066664678467 -2.95442325903662 0.451151199541306 -0.260472266500395 -2.95442325903662 0.475001990702209 -1.42280466292072 -2.59807621135332 0.513030214988503 -0.0904610688211376 -2.95442325903662 -1.39793477262209 -1.82406007877899 -1.92836282905962 1.08180367101572 -1.0390865302644 -2.59807621135332 1.89506345255956 0.718702767775784 2.21183201043037 1.39793477262208 1.82406007877899 1.92836282905962 1.60890985322954 0.61017902226757 2.45745613286697 1.66494423114897 -1.58410148243884 -1.92836282905962 1.19139378590131 0.433631875357798 2.71892336110995 2.28920276036676 -0.651334341863323 -1.82628428702616 0.868593419566318 1.22292496559932 2.59807621135332 -1.66494423114897 1.58410148243884 1.92836282905962 0.489527733499603 0.178173523841654 2.95442325903662 2.66583307671561 -0.758494906000311 -1.14805029709527 0.399066664678466 0.334856691146848 2.95442325903662 -0.475001990702208 1.42280466292072 2.59807621135332 0.260472266500395 0.451151199541305 2.95442325903662 -1.08180367101572 1.0390865302644 2.59807621135332 2.80001626635485 -1.01912257641436 -0.348278742375692 0.0904610688211376 0.513030214988502 2.95442325903662 2.80835041998858 -1.02215596026483 -0.261467228242977 2.75464832064082 -1.18823929811747 -8.88178419700125e-16 -0.0904610688211376 0.513030214988502 2.95442325903662 -1.66494423114898 -1.58410148243884 1.92836282905962 2.88675056069717 -0.773502481488904 0.261467228242973 2.82908858214012 -0.75805200090056 0.649318841814306 -1.08180367101572 -1.0390865302644 2.59807621135332 1.39793477262208 -1.824060078779 1.92836282905962 -0.475001990702209 -1.42280466292072 2.59807621135332 1.89506345255956 -0.718702767775785 2.21183201043037 0.868593419566317 -1.22292496559932 2.59807621135332 1.60890985322954 -0.61017902226757 2.45745613286697 0.0904610688211367 -0.513030214988502 2.95442325903662 1.19139378590131 -0.433631875357798 2.71892336110995 0.260472266500395 -0.451151199541306 2.95442325903662 0.399066664678466 -0.334856691146848 2.95442325903662 0.489527733499603 -0.178173523841654 2.95442325903662 0.236969785011497 0.110500825502204 -2.98858409427524 0.214181414529809 0.149971440998191 -2.98858409427524 0.184885250148658 0.184885250148658 -2.98858409427524 1.39152892649121 0.560042182998931 -2.59807621135332 -0.174139371187845 0.301618238495443 -2.97971507322583 -0.184885250148658 0.184885250148658 -2.98858409427524 -0.328144964839845 0.703709148029414 -2.8977774788672 -0.549038105676658 0.549038105676658 -2.8977774788672 -0.220718206247574 1.48367229313985 -2.59807621135332 -0.0346504177518074 1.72038039502434 -2.45745613286697 0.952296339300365 1.89555577131224 -2.12132034355964 -0.520944533000791 0 -2.95442325903662 1.27133498421488 2.1030449360099 -1.72072930905314 2.21975324040157 1.52056633602943 -1.326866070657 -0.605488000424367 1.96767186066299 -2.18212092471915 -0.558741171152447 2.04641352215509 -2.12132034355964 2.26044572984954 1.65891468225146 -1.06695228544463 -0.475678246538556 2.2483654074174 -1.92836282905962 -0.549038105676659 -0.549038105676658 -2.8977774788672 -1.5 0 -2.59807621135332 -0.89587357846864 2.28834026673642 -1.72072930905314 -1.77524694672471 1.16124858585258 -2.12132034355964 -0.328144964839845 -0.703709148029414 -2.8977774788672 -1.70953706739316 -0.19593971073599 -2.45745613286697 2.24502429699694 1.95922633289331 -0.348278742375691 2.23254724593567 1.98679834991375 -0.261467228242975 -1.96634298387884 1.47396944158146 -1.72072930905314 2.1417892036737 2.10065204330151 0 0.184885250148658 -0.184885250148658 -2.98858409427524 0.214181414529809 -0.149971440998191 -2.98858409427524 -1.77524694672471 -1.16124858585258 -2.12132034355964 0.236969785011497 -0.110500825502204 -2.98858409427524 -0.220718206247574 -1.48367229313985 -2.59807621135332 2.45307258194607 1.34170895627554 1.0873141148511 -0.0346504177518074 -1.72038039502434 -2.45745613286697 -1.96634298387885 -1.47396944158146 -1.72072930905314 -0.60548800042437 -1.96767186066299 -2.18212092471915 -0.558741171152449 -2.04641352215509 -2.12132034355964 -0.475678246538558 -2.2483654074174 -1.92836282905962 1.96634298387884 1.47396944158146 1.72072930905314 -0.895873578468641 -2.28834026673642 -1.72072930905314 1.39152892649121 -0.560042182998932 -2.59807621135332 0.952296339300363 -1.89555577131224 -2.12132034355964 0.89587357846864 2.28834026673642 1.72072930905314 1.27133498421487 -2.1030449360099 -1.72072930905314 0.475678246538557 2.2483654074174 1.92836282905962 0.558741171152448 2.04641352215509 2.12132034355964 0.605488000424368 1.96767186066299 2.18212092471915 -1.27133498421488 2.10304493600989 1.72072930905314 2.21975324040157 -1.52056633602943 -1.326866070657 -0.952296339300364 1.89555577131224 2.12132034355964 0.0346504177518074 1.72038039502434 2.45745613286697 -2.18802128312399 1.11877321632312 1.72072930905314 2.26044572984953 -1.65891468225147 -1.06695228544463 0.220718206247574 1.48367229313985 2.59807621135332 -2.18498068308289 0.712233258178672 1.92836282905962 0.226437261915519 0.130733614121487 2.98858409427524 -1.96979002732657 0.787354588635134 2.12132034355964 0.200295517253251 0.168067894653666 2.98858409427524 -1.88429268532422 0.829330661399001 2.18212092471915 2.24502429699694 -1.95922633289332 -0.348278742375691 2.23254724593566 -1.98679834991376 -0.261467228242975 0.168067894653666 0.200295517253251 2.98858409427524 -2.18802128312399 -1.11877321632311 1.72072930905314 2.14178920367369 -2.10065204330151 0 -2.18498068308289 -0.71223325817867 1.92836282905962 -1.59629640547246 0.642453999061575 2.45745613286697 -1.96979002732657 -0.787354588635134 2.12132034355964 -1.27133498421488 -2.10304493600989 1.72072930905314 -1.88429268532422 -0.829330661399 2.18212092471915 -0.499097026028405 0.594800673822438 2.89777747886721 -1.59629640547246 -0.642453999061575 2.45745613286697 -0.672431604126039 0.388228567653781 2.89777747886721 -0.952296339300366 -1.89555577131224 2.12132034355964 2.45307258194607 -1.34170895627554 1.0873141148511 0.895873578468636 -2.28834026673642 1.72072930905314 0.475678246538553 -2.2483654074174 1.92836282905962 0.558741171152446 -2.04641352215509 2.12132034355964 0.605488000424366 -1.96767186066299 2.18212092471915 1.96634298387884 -1.47396944158146 1.72072930905314 -0.513030214988503 -0.0904610688211376 2.95442325903662 0.0346504177518057 -1.72038039502434 2.45745613286697 0.220718206247573 -1.48367229313985 2.59807621135332 -0.388228567653782 -0.672431604126039 2.89777747886721 -0.168067894653666 -0.200295517253251 2.98858409427524 -0.137946162796575 -0.319795150933365 2.97971507322583 0.200295517253251 -0.168067894653666 2.98858409427524 0.226437261915519 -0.130733614121487 2.98858409427524 0.0500772506238878 0.120897177622546 -2.99714466474557 0.606187868875193 2.21674379826126 -1.92836282905962 0.283505708270625 2.19358732576172 -2.02677062284698 0.397086423727243 2.3467015308839 -1.82628428702616 -0.184885250148658 -0.184885250148658 -2.98858409427524 1.55510687828589 2.17571396546696 -1.35937902646022 1.54657571618108 2.22490587103819 -1.28759365451169 -0.0500772506238878 -0.120897177622546 -2.99714466474557 -0.368363411906919 -0.368363411906919 -2.95442325903662 1.54098883111573 2.35464326550075 -1.03971559313522 -0.149850633756945 -0.361771432346218 -2.97433458412143 0 -0.174434486731427 -2.9949244748138 -2.20931632459604 0.953695929043086 -1.79147577510836 1.39281025022306 2.64418503426453 -0.261467228242974 -2.28092430679194 0.679757316729318 -1.82628428702616 -2.40043671328484 0.799803577978647 -1.61189882504047 1.276635955949 2.71481134445438 8.88178419700125e-16 -2.28092430679194 -0.679757316729315 -1.82628428702616 -2.20931632459604 -0.953695929043084 -1.79147577510836 -2.40043671328484 -0.799803577978644 -1.61189882504047 1.9029941633086 2.06963275421441 1.04653403054859 1.87550454889023 1.94913783810184 1.2974376189905 2.18029387706002 0.726453996586002 1.92836282905962 0.283505708270622 -2.19358732576172 -2.02677062284698 0.606187868875191 -2.21674379826126 -1.92836282905962 0.397086423727241 -2.3467015308839 -1.82628428702616 -0.397086423727242 2.3467015308839 1.82628428702616 1.55510687828589 -2.17571396546696 -1.35937902646022 -0.283505708270623 2.19358732576172 2.02677062284698 -0.606187868875192 2.21674379826126 1.92836282905962 1.54657571618108 -2.2249058710382 -1.28759365451169 1.54098883111573 -2.35464326550075 -1.03971559313522 1.39281025022305 -2.64418503426454 -0.261467228242974 1.276635955949 -2.71481134445438 8.88178419700125e-16 -2.29813332935693 0 1.92836282905962 -1.72072930905314 0 2.45745613286697 -0.0101424633870852 0.174139371187845 2.9949244748138 -1.3850507767844 -0.0232461211650783 2.66103249953466 -0.397086423727246 -2.3467015308839 1.82628428702616 1.90299416330859 -2.06963275421442 1.04653403054859 -0.606187868875193 -2.21674379826126 1.92836282905962 -0.0553030489995976 0.118597771304915 2.99714466474557 -0.426732779168772 0.298801508775154 2.95442325903662 -0.283505708270626 -2.19358732576171 2.02677062284698 1.87550454889023 -1.94913783810184 1.2974376189905 -0.200295517253252 0.168067894653666 2.98858409427524 -0.378235860217557 0.101347993293786 2.97433458412143 2.18029387706002 -0.726453996586004 1.92836282905962 0.0553030489995976 -0.118597771304915 2.99714466474557 -0.120897177622546 0.0500772506238878 -2.99714466474557 0.675084877345858 2.59225647777367 -1.35072823388695 0.654917210695246 2.63569369716433 -1.27444190996034 0.616335688328448 2.74917503214434 -1.03061484654882 -2.16646839650512 -0.0519800931948655 -2.07453916734681 0.394876360027698 2.96238207340752 -0.261467228242974 0.264686868000516 2.98830066457645 8.88178419700125e-16 1.08379340557771 2.59971689624371 1.03289104624411 1.10166928542796 2.48067007451519 1.2777326664641 1.12260906798993 2.43093221164855 1.35289225839912 1.87139382420383 1.33390477704856 1.92836282905962 0.675084877345856 -2.59225647777367 -1.35072823388695 0.654917210695245 -2.63569369716433 -1.27444190996034 0.616335688328444 -2.74917503214434 -1.03061484654882 0.394876360027693 -2.96238207340752 -0.261467228242974 0.264686868000513 -2.98830066457645 8.88178419700125e-16 1.0837934055777 -2.59971689624371 1.03289104624411 1.10166928542796 -2.48067007451519 1.2777326664641 1.12260906798993 -2.43093221164855 1.35289225839912 -1.33405186072881 -0.549961267113687 2.63018026712252 -0.194530789178978 0.0256104642530595 2.99357676971581 1.87139382420382 -1.33390477704856 1.92836282905962 -0.118597771304916 -0.0553030489995976 2.99714466474557 -0.297648614175116 2.66359317527572 -1.34784149628369 -0.327330189448496 2.69811500563005 -1.27005132316358 -0.389574011929125 2.79147161206977 -1.02757886716205 -0.645276158714444 2.91809074011582 -0.261467228242974 -0.775416431804127 2.89805613425416 8.88178419700125e-16 0.110617121783989 2.81607614663938 1.02833797396426 0.159935939387532 2.71267395756027 1.27114928126736 0.187594757188056 2.67323496139845 1.34856332748322 -0.297648614175118 -2.66359317527572 -1.34784149628369 -0.327330189448499 -2.69811500563005 -1.27005132316358 -0.389574011929129 -2.79147161206977 -1.02757886716205 -0.645276158714447 -2.91809074011582 -0.261467228242974 -0.775416431804131 -2.89805613425416 8.88178419700125e-16 0.110617121783985 -2.81607614663938 1.02833797396426 0.159935939387529 -2.71267395756027 1.27114928126736 0.187594757188053 -2.67323496139845 1.34856332748322 -1.23173253974571 2.38091414634807 -1.34687890259342 -1.26773952708536 2.40489570903527 -1.26858705658269 -1.34638357805901 2.47657268385377 -1.02656660880937 -1.60531244662565 2.52083455174347 -0.261467228242974 -1.72043512182279 2.45766209874315 8.88178419700125e-16 -1.23173253974571 -2.38091414634806 -1.34687890259342 -1.26773952708537 -2.40489570903527 -1.26858705658269 -0.883671137454056 2.67670817491452 1.02681968581461 -1.34638357805901 -2.47657268385377 -1.02656660880937 -0.813127818343379 2.59395085428747 1.26895315775541 -0.779113926058146 2.56481000497202 1.34711956730562 -1.60531244662566 -2.52083455174347 -0.261467228242974 -1.72043512182279 -2.45766209874315 8.88178419700125e-16 -0.883671137454058 -2.67670817491452 1.02681968581461 -0.813127818343382 -2.59395085428747 1.26895315775541 -0.77911392605815 -2.56481000497202 1.34711956730562 -2.00265030601104 1.78218217531881 -1.34655799942289 -2.04182596313218 1.79523590423769 -1.2680988858978 -2.33113100800643 1.58514413692197 -1.02622915993107 -2.19570731750509 1.89092030997089 -0.776717295542073 -2.37089427606231 1.8194766336202 -0.261467228242974 -2.00265030601104 -1.78218217531881 -1.34655799942289 -2.45738746974926 1.72082736598398 8.88178419700125e-16 -2.04182596313218 -1.79523590423769 -1.2680988858978 -2.33113100800643 -1.58514413692197 -1.02622915993107 -2.19570731750509 -1.89092030997089 -0.776717295542073 -1.76772997632596 2.19586230948552 1.02631352352949 -2.37089427606231 -1.8194766336202 -0.261467228242974 -1.68325799547691 2.13500777218226 1.26822093240271 -1.6450862891137 2.11666166093826 1.34663822702469 -2.45738746974926 -1.72082736598398 8.88178419700125e-16 -1.76772997632597 -2.19586230948552 1.02631352352949 -1.68325799547691 -2.13500777218226 1.26822093240271 -1.6450862891137 -2.11666166093826 1.34663822702469 -2.59858504412413 0.799808526921905 -1.2679361532496 -2.76339114642656 0.557453086635089 -1.02611667370348 -2.76953960035573 0.852425974289792 -0.77654385608124 -2.59858504412413 -0.799808526921902 -1.2679361532496 -2.76339114642656 -0.557453086635089 -1.02611667370348 -2.85024537906169 0.898741435393092 -0.261467228242974 -2.76953960035573 -0.852425974289791 -0.77654385608124 -2.89776715112002 0.776495677959498 8.88178419700125e-16 -2.85024537906169 -0.898741435393092 -0.261467228242974 -2.49465963366132 1.47430851852799 0.776587216207279 -2.89776715112002 -0.776495677959497 8.88178419700125e-16 -2.57697134808667 1.14291098952895 1.02614479541355 -2.33353383209703 1.39529731444667 1.26797683683752 -2.29377275451856 1.3876614010153 1.3464777706151 -2.49465963366132 -1.47430851852799 0.776587216207279 -2.57697134808667 -1.14291098952894 1.02614479541355 -2.33353383209703 -1.39529731444667 1.26797683683752 -2.29377275451856 -1.3876614010153 1.3464777706151 -2.98858409427524 0 -0.261467228242974 -2.99643120805197 0.0653923300169463 -0.130858162096008 -2.98352672568669 -0.261038094829127 -0.174434486731427 -3 0 8.88178419700125e-16 -2.86908909933104 0.167105410716461 0.860467037026461 -2.87641913380692 -0.351083959646148 0.776500495781333 -2.81904715442039 0 1.02614479541355 -2.7493999959718 0.169577187254603 1.18829425636627 -2.70053068665552 -0.315555207789578 1.26789546937779 0 1.5707963267949 6.28318530717959 1.5707963267949 6.28318530717959 -1.5707963267949 6.28318530717959 -1.30899693899575 6.28318530717959 -1.0471975511966 6.28318530717959 -0.785398163397449 6.28318530717959 -0.5235987755983 6.28318530717959 -0.261799387799151 6.28318530717959 -1.55431223447522e-15 6.28318530717959 0.261799387799147 6.28318530717959 0.523598775598296 6.28318530717959 0.785398163397446 6.28318530717959 1.04719755119659 6.28318530717959 1.30899693899574 0 -1.5707963267949 0 -1.30899693899575 0 -1.0471975511966 0 -0.785398163397449 0 -0.5235987755983 0 -0.261799387799151 0 -1.55431223447522e-15 0 0.261799387799147 0 0.523598775598296 0 0.785398163397446 0 1.04719755119659 0 1.30899693899574 0.349065850398866 -1.22173047639603 1.0471975511966 -1.22173047639603 0.483321946706122 -0.872664625997165 1.74532925199433 -1.22173047639603 0.966643893412244 -0.872664625997165 0.184799567858223 -0.523598775598299 2.44346095279206 -1.22173047639603 1.44996584011837 -0.872664625997165 0.554398703574669 -0.523598775598299 1.93328778682449 -0.872664625997165 0.923997839291116 -0.523598775598299 3.14159265358979 -1.22173047639603 1.29359697500756 -0.523598775598299 2.41660973353061 -0.872664625997165 0.349065850398866 -0.174532925199433 1.66319611072401 -0.523598775598299 3.83972435438753 -1.22173047639603 0.698131700797732 -0.174532925199433 2.89993168023673 -0.872664625997165 2.03279524644045 -0.523598775598299 1.0471975511966 -0.174532925199433 0.174532925199433 0.174532925199433 3.38325362694285 -0.872664625997165 2.4023943821569 -0.523598775598299 4.53785605518526 -1.22173047639603 1.39626340159546 -0.174532925199433 0.523598775598299 0.174532925199433 2.77199351787335 -0.523598775598299 1.74532925199433 -0.174532925199433 3.86657557364898 -0.872664625997165 0.872664625997165 0.174532925199433 5.23598775598299 -1.22173047639603 3.14159265358979 -0.523598775598299 2.0943951023932 -0.174532925199433 4.3498975203551 -0.872664625997165 1.22173047639603 0.174532925199433 2.44346095279206 -0.174532925199433 3.51119178930624 -0.523598775598299 0.369599135716446 0.523598775598299 1.5707963267949 0.174532925199433 4.83321946706122 -0.872664625997165 5.93411945678072 -1.22173047639603 2.79252680319093 -0.174532925199433 3.88079092502268 -0.523598775598299 0.739198271432893 0.523598775598299 1.91986217719376 0.174532925199433 3.14159265358979 -0.174532925199433 4.25039006073913 -0.523598775598299 1.10879740714934 0.523598775598299 5.31654141376734 -0.872664625997165 2.26892802759263 0.174532925199433 0.241660973353061 0.872664625997165 3.49065850398866 -0.174532925199433 4.61998919645558 -0.523598775598299 1.47839654286579 0.523598775598299 2.61799387799149 0.174532925199433 5.79986336047346 -0.872664625997165 3.83972435438753 -0.174532925199433 0.724982920059183 0.872664625997165 4.98958833217202 -0.523598775598299 1.84799567858223 0.523598775598299 2.96705972839036 0.174532925199433 4.18879020478639 -0.174532925199433 5.35918746788847 -0.523598775598299 2.21759481429868 0.523598775598299 1.2083048667653 0.872664625997165 3.31612557878923 0.174532925199433 4.53785605518526 -0.174532925199433 5.72878660360492 -0.523598775598299 2.58719395001512 0.523598775598299 3.66519142918809 0.174532925199433 1.69162681347143 0.872664625997165 4.88692190558412 -0.174532925199433 0.698131700797732 1.22173047639603 6.09838573932136 -0.523598775598299 2.95679308573157 0.523598775598299 4.01425727958696 0.174532925199433 5.23598775598299 -0.174532925199433 2.17494876017755 0.872664625997165 4.36332312998582 0.174532925199433 3.32639222144802 0.523598775598299 5.58505360638185 -0.174532925199433 1.39626340159546 1.22173047639603 4.71238898038469 0.174532925199433 3.69599135716446 0.523598775598299 2.65827070688367 0.872664625997165 5.93411945678072 -0.174532925199433 5.06145483078355 0.174532925199433 4.06559049288091 0.523598775598299 3.14159265358979 0.872664625997165 2.0943951023932 1.22173047639603 5.41052068118242 0.174532925199433 4.43518962859735 0.523598775598299 3.62491460029592 0.872664625997165 5.75958653158129 0.174532925199433 4.8047887643138 0.523598775598299 2.79252680319093 1.22173047639603 6.10865238198015 0.174532925199433 4.10823654700204 0.872664625997165 5.17438790003025 0.523598775598299 5.54398703574669 0.523598775598299 3.49065850398866 1.22173047639603 4.59155849370816 0.872664625997165 5.91358617146314 0.523598775598299 5.07488044041428 0.872664625997165 4.18879020478639 1.22173047639603 5.5582023871204 0.872664625997165 4.88692190558412 1.22173047639603 6.04152433382652 0.872664625997165 5.58505360638185 1.22173047639603 0.174532925199433 -1.39626340159546 0.523598775598299 -1.39626340159546 0.872664625997165 -1.39626340159546 1.22173047639603 -1.39626340159546 1.5707963267949 -1.39626340159546 0.76525974895136 -1.0471975511966 1.24858169565748 -1.0471975511966 0.277199351787335 -0.654498469497874 0.760521298493457 -0.698131700797732 2.18837436980827 -1.0471975511966 0.277199351787335 -0.392699081698725 2.6716963165144 -1.0471975511966 0.349065850398866 -0.116355283466289 0.349065850398866 -0.0872664625997173 2.22470248998553 -0.698131700797732 0.40724349213201 -4.44089209850063e-16 3.61148899066519 -1.0471975511966 4.71238898038469 -1.39626340159546 0.261799387799149 0.0872664625997162 5.06145483078356 -1.39626340159546 0.261799387799149 0.21816615649929 4.09481093737131 -1.0471975511966 5.41052068118242 -1.39626340159546 5.75958653158129 -1.39626340159546 5.0346036115221 -1.0471975511966 6.10865238198015 -1.39626340159546 4.05848281719405 -0.698131700797732 5.51792555822823 -1.0471975511966 0.362491460029591 0.829031394697305 0.916890163604261 0.698131700797732 0.362491460029591 0.95993108859688 5.52266400868613 -0.698131700797732 0.349065850398866 1.13446401379631 6.00598595539225 -0.654498469497874 0.953218283781518 1.0471975511966 2.38107135509634 0.698131700797732 0.349065850398866 1.39626340159546 6.00598595539225 -0.392699081698725 0.698131700797732 1.39626340159546 1.89301095793231 1.0471975511966 1.0471975511966 1.39626340159546 2.37633290463843 1.0471975511966 5.93411945678072 -0.116355283466289 1.39626340159546 1.39626340159546 5.93411945678072 -0.0872664625997173 5.87594181504758 -4.44089209850063e-16 1.74532925199433 1.39626340159546 3.90211395208325 0.698131700797732 6.02138591938044 0.0872664625997162 6.02138591938044 0.21816615649929 3.90685240254115 1.0471975511966 5.36629514357532 0.698131700797732 4.39017434924727 1.0471975511966 5.92069384714999 0.829031394697305 5.32996702339807 1.0471975511966 5.92069384714999 0.95993108859688 4.88692190558412 1.39626340159546 5.93411945678072 1.13446401379631 5.23598775598299 1.39626340159546 5.58505360638185 1.39626340159546 5.93411945678072 1.39626340159546 0.436332312998582 -1.48352986419518 0.610865238198015 -1.48352986419518 0.785398163397448 -1.48352986419518 0.38262987447568 -1.0471975511966 2.0943951023932 -1.45444104332861 2.35619449019234 -1.48352986419518 2.00712863979348 -1.30899693899575 2.35619449019234 -1.30899693899575 1.71847803273288 -1.0471975511966 1.59093474124098 -0.959931088596881 1.10524356930591 -0.785398163397448 3.14159265358979 -1.39626340159546 1.02705913675051 -0.610865238198015 0.600598595539225 -0.458148928648512 1.8693187056428 -0.814486984264021 1.83733416505195 -0.785398163397448 0.633109630625394 -0.363610260832152 1.77928814694264 -0.698131700797732 3.92699081698724 -1.30899693899575 3.14159265358979 -1.0471975511966 1.94394930035477 -0.610865238198015 2.56231708511113 -0.785398163397448 4.27605666738611 -1.30899693899575 3.25571033545096 -0.959931088596881 0.717524248042113 -0.116355283466289 0.727220521664304 -0.0872664625997168 2.49834800392944 -0.610865238198015 0.775701889775258 2.22044604925031e-16 5.49778714378214 -1.48352986419518 5.67232006898157 -1.48352986419518 3.72086822206845 -0.785398163397448 5.846852994181 -1.48352986419518 4.56470727444671 -1.0471975511966 0.500498829616021 0.370882466048795 4.6922505659386 -0.959931088596881 3.78483730325015 -0.610865238198015 4.41386660153679 -0.814486984264021 4.44585114212764 -0.785398163397448 4.50389716023695 -0.698131700797732 0.643244649660354 0.610865238198016 4.33923600682482 -0.610865238198015 5.90055543270391 -1.0471975511966 5.17794173787367 -0.785398163397448 1.19764335323502 0.610865238198016 5.25612617042908 -0.610865238198015 1.36230450664716 0.698131700797732 1.30425848853784 0.785398163397448 1.272273947947 0.814486984264021 2.11453351683928 0.610865238198016 5.68258671164036 -0.458148928648512 2.03634908428388 0.785398163397448 1.55065791234881 0.959931088596881 2.66893222041395 0.610865238198016 5.65007567655419 -0.363610260832152 1.42311462085691 1.0471975511966 2.82648569813923 0.698131700797732 0.523598775598299 1.48352986419518 2.76133200434306 0.785398163397448 0.698131700797732 1.48352986419518 2.72697823852327 0.814486984264021 5.56566105913747 -0.116355283466289 5.55596478551528 -0.0872664625997168 0.872664625997165 1.48352986419518 3.61425308676563 0.610865238198016 5.50748341740433 2.22044604925031e-16 3.45669960904035 0.698131700797732 2.75896277911411 0.959931088596881 3.52185330283652 0.785398163397448 4.1686517903403 0.610865238198016 3.55620706865632 0.814486984264021 2.26892802759263 1.30899693899575 3.52422252806547 0.959931088596881 2.61799387799149 1.30899693899575 4.2468362228957 0.785398163397448 5.78268647756356 0.370882466048795 5.08554195394456 0.610865238198016 4.92088080053243 0.698131700797732 4.97892681864174 0.785398163397448 5.01091135923259 0.814486984264021 5.63994065751923 0.610865238198016 3.31612557878923 1.39626340159546 4.73252739483078 0.959931088596881 4.86007068632267 1.0471975511966 4.18879020478639 1.30899693899575 4.01425727958696 1.48352986419518 4.30514548825268 1.45444104332861 5.58505360638185 1.48352986419518 5.75958653158129 1.48352986419518 1.17809724509617 -1.52716309549504 1.30386361766635 -0.698131700797732 1.44226585812427 -0.74176493209759 1.40317364184657 -0.654498469497873 3.92699081698724 -1.48352986419518 0.950234814974691 -0.47026927067625 0.963353302816478 -0.443604518215226 4.31968989868597 -1.52716309549504 3.92699081698724 -1.39626340159546 0.991301385609851 -0.353913987209961 4.31968989868597 -1.43989663289532 4.71238898038469 -1.51261868506175 2.73408591421012 -0.639954059064587 1.08598264568536 -0.0872664625997164 2.85195486935046 -0.654498469497873 2.81997032875962 -0.567232006898157 1.13123192258892 2.22044604925031e-16 3.43123043782912 -0.654498469497873 3.54909939296946 -0.639954059064587 3.46321497841997 -0.567232006898157 0.827320287587508 0.356338055615509 0.80464811838268 0.447240620823547 0.321622324830177 0.698131700797731 4.84091944905531 -0.74176493209759 4.97932168951323 -0.698131700797732 4.88001166533301 -0.654498469497873 1.73841901174322 0.654498469497874 5.33295049220489 -0.47026927067625 1.69932679546552 0.74176493209759 1.83772903592344 0.698131700797732 5.31983200436311 -0.443604518215226 5.29188392156973 -0.353913987209961 5.19720266149422 -0.0872664625997164 5.15195338459067 2.22044604925031e-16 3.14159265358979 0.698131700797732 3.14159265358979 0.959931088596881 1.62897396852804 1.51261868506175 3.1583746656282 1.09083078249646 4.54476629543636 0.654498469497874 5.45586501959208 0.356338055615509 4.44545627125614 0.698131700797732 2.00712863979348 1.52716309549504 2.53072741539178 1.39626340159546 4.58385851171407 0.74176493209759 5.4785371887969 0.447240620823547 2.44346095279206 1.48352986419518 2.87979326579064 1.43989663289532 5.96156298234941 0.698131700797731 5.14872129338327 1.52716309549504 2.74889357189107 -1.52716309549504 1.31603149044714 -0.467037179468853 1.32724874816693 -0.43875638140413 1.35025363264311 -0.350681896002564 3.16558105903293 -0.763581547747519 1.43828058729162 -0.0872664625997164 1.48245250045938 2.22044604925031e-16 1.17581576894977 0.351489918804414 1.15285841522665 0.439968415606904 1.13817141253421 0.467845202270702 0.619256244217219 0.698131700797731 4.96715381673244 -0.467037179468853 4.95593655901266 -0.43875638140413 4.93293167453648 -0.350681896002564 4.84490471988796 -0.0872664625997164 4.8007328067202 2.22044604925031e-16 5.10736953822981 0.351489918804414 5.13032689195294 0.439968415606904 5.14501389464537 0.467845202270702 3.53261353408468 1.06901416684653 3.01069295969022 1.50534647984511 5.66392906296237 0.698131700797731 3.57792496658837 1.52716309549504 1.68208166326919 -0.465959815733054 1.69152443954178 -0.437140335800431 1.70945937702596 -0.349604532266765 1.78842380142629 -0.0872664625997164 1.83223659334878 2.22044604925031e-16 1.53153592477563 0.349873873200715 1.511905723766 0.437544347201356 1.50073599679926 0.466229156667004 4.6011036439104 -0.465959815733054 4.5916608676378 -0.437140335800431 4.57372593015362 -0.349604532266765 4.4947615057533 -0.0872664625997164 4.45094871383081 2.22044604925031e-16 4.75164938240395 0.349873873200715 4.77127958341358 0.437544347201356 4.78244931038032 0.466229156667004 2.04821633520777 -0.465600694487788 2.05592687959143 -0.436601653932532 2.06874962052535 -0.349245411021499 2.13784877307042 -0.0872664625997164 2.18154185791116 2.22044604925031e-16 4.23496897197181 -0.465600694487788 4.22725842758815 -0.436601653932532 1.88966430542269 0.349335191332816 4.21443568665423 -0.349245411021499 1.87456536953716 0.436736324399507 1.86570880588551 0.465690474799104 4.14533653410917 -0.0872664625997164 4.10164344926843 2.22044604925031e-16 4.39352100175689 0.349335191332816 4.40861993764243 0.436736324399507 4.41747650129407 0.465690474799104 2.41437917351853 -0.465480987406032 2.42037156919935 -0.436422093309899 2.54442331386321 -0.349125703939744 2.43063821185814 -0.261889168110466 2.48703433055104 -0.0872664625997164 3.86880613366105 -0.465480987406032 2.53068751303119 2.22044604925031e-16 3.86281373798024 -0.436422093309899 3.73876199331638 -0.349125703939744 3.85254709532145 -0.261889168110466 2.24859542767681 0.349155630710183 3.79615097662854 -0.0872664625997164 2.23842912771891 0.436466983465557 2.23148435657883 0.465510914176472 3.75249779414839 2.22044604925031e-16 4.03458987950277 0.349155630710183 4.04475617946068 0.436466983465557 4.05170095060075 0.465510914176472 2.8430079837265 -0.436362239769021 2.94253620701427 -0.349085801579158 2.8430079837265 -0.261829314569588 3.44017732345308 -0.436362239769021 3.34064910016532 -0.349085801579158 2.83614008331049 -0.0872664625997164 3.44017732345309 -0.261829314569588 2.87977996500378 2.22044604925031e-16 3.44704522386909 -0.0872664625997164 2.60782757803359 0.261844277954808 3.4034053421758 2.22044604925031e-16 2.72414941393291 0.349095777169305 2.60269425670419 0.436377203154241 2.59752748780784 0.465451060635594 3.675357729146 0.261844277954808 3.55903589324667 0.349095777169305 3.68049105047539 0.436377203154241 3.68565781937175 0.465451060635594 3.14159265358979 -0.0872664625997164 3.11977271274315 -0.0436332312998582 3.22886354978513 -0.0581776417331441 3.14159265358979 2.22044604925031e-16 3.08341501185665 0.290908159846014 3.26304781081852 0.261814351184369 3.14159265358979 0.349095777169305 3.07999279763705 0.407263443312303 3.25791448948912 0.436347276383802 294 216 209 294 209 290 294 220 216 295 47 44 295 214 292 295 44 214 296 154 220 296 290 293 296 294 290 296 220 294 297 293 3 297 3 226 297 226 156 297 156 154 297 154 296 297 296 293 298 224 219 299 47 52 299 222 47 299 223 222 299 225 223 300 298 219 301 59 54 301 54 224 301 298 300 301 224 298 301 300 59 302 57 225 135 12 13 302 62 57 302 225 299 303 59 300 137 16 15 137 27 16 304 228 233 138 28 27 304 303 228 305 304 233 305 233 64 305 64 59 138 27 137 305 59 303 305 303 304 306 53 57 306 231 53 139 28 138 307 65 231 307 71 65 140 30 28 307 231 306 307 75 71 140 28 139 308 24 23 308 23 65 141 30 140 308 165 24 308 65 237 309 235 67 142 27 28 309 236 235 309 67 240 142 31 29 143 34 31 143 28 30 310 309 240 143 142 28 310 240 242 311 86 80 143 31 142 311 236 309 144 19 18 311 242 86 311 80 236 144 32 19 311 309 310 144 18 29 311 310 242 144 35 32 312 81 87 312 243 81 145 29 31 312 87 246 313 86 90 145 144 29 145 35 144 313 90 247 146 30 33 314 248 98 146 40 36 314 244 243 314 98 244 314 243 312 147 20 19 315 246 248 147 19 32 315 312 246 315 314 312 147 41 20 315 248 314 316 313 247 316 247 251 148 45 40 148 40 146 148 33 38 148 146 33 317 251 108 149 21 20 317 316 251 149 20 41 317 108 104 149 41 44 318 258 259 318 104 258 150 21 149 318 259 262 318 99 104 319 318 262 319 118 114 319 262 118 320 116 255 320 253 102 320 107 263 320 255 253 152 21 150 320 263 265 320 265 116 320 102 107 321 264 116 153 56 49 321 116 269 322 1 260 153 38 43 322 180 183 322 260 180 323 264 321 155 53 48 155 48 21 155 21 152 27 17 16 155 152 53 323 128 123 323 123 264 156 58 51 324 119 122 156 51 154 324 122 274 157 48 53 324 266 119 157 22 48 325 118 121 158 43 51 325 121 272 158 153 43 29 18 17 158 56 153 326 266 324 158 61 56 326 271 266 159 58 156 327 1 322 327 322 183 160 58 159 327 183 268 160 68 58 328 268 270 161 51 58 329 324 274 329 271 326 161 76 67 329 129 271 162 3 4 329 326 324 329 275 129 162 68 160 329 274 275 162 4 68 330 325 272 330 127 126 330 130 127 330 272 130 331 327 268 164 83 76 331 268 328 164 76 161 164 161 58 332 328 270 332 123 278 164 58 68 332 331 328 332 270 123 333 11 12 333 12 190 165 78 24 333 130 11 333 277 130 334 282 283 334 284 2 334 283 193 334 193 195 334 195 284 335 3 293 167 78 165 335 15 3 167 25 78 335 293 290 167 165 85 335 290 209 168 76 83 335 203 286 335 205 203 335 209 205 335 286 15 336 291 39 336 292 291 169 26 25 169 100 26 336 39 42 169 25 167 170 6 7 170 168 83 170 95 168 337 295 292 170 7 101 170 101 95 337 292 336 170 83 6 338 52 47 171 169 167 338 47 295 171 85 92 171 109 100 171 167 85 171 100 169 338 295 337 339 219 45 339 300 219 339 45 49 339 303 300 339 228 303 339 49 228 340 52 55 340 299 52 173 1 26 340 302 299 173 26 100 174 7 8 341 66 62 174 8 113 341 62 302 174 101 7 341 302 340 342 57 62 175 173 100 176 117 109 342 306 57 343 307 306 343 306 342 176 98 105 344 75 307 344 81 75 344 307 343 345 166 85 345 237 166 345 85 165 177 100 109 345 165 308 345 308 237 177 175 100 346 313 316 178 117 176 178 123 117 346 80 86 178 105 112 346 86 313 178 176 105 179 8 9 179 108 113 347 316 317 179 113 8 347 346 316 180 177 109 348 317 104 348 104 99 348 347 317 349 94 99 349 99 318 181 179 9 349 318 319 182 181 9 350 349 319 350 319 114 350 114 110 183 109 117 351 114 118 183 180 109 351 118 325 48 22 21 352 351 325 352 325 330 353 352 330 185 121 182 353 126 122 185 9 124 353 330 126 185 124 121 185 182 9 354 187 128 354 321 269 354 269 187 186 124 10 354 128 323 186 121 124 354 323 321 355 332 278 187 120 125 355 327 331 187 132 128 355 331 332 356 133 188 356 190 133 356 188 277 356 333 190 356 277 333 357 2 1 357 278 282 357 334 2 357 327 355 357 355 278 189 125 129 357 282 334 189 132 187 357 1 327 358 42 46 189 187 125 189 134 132 358 336 42 358 337 336 190 12 135 359 337 358 191 131 133 359 338 337 360 55 52 191 136 134 360 52 338 192 133 190 192 190 135 360 338 359 192 191 133 361 341 340 192 135 13 361 340 55 361 55 60 362 72 66 362 66 341 194 13 14 194 136 191 194 191 192 194 192 13 362 341 361 194 14 136 363 342 62 195 193 134 363 62 66 195 134 136 196 195 136 197 14 2 364 342 363 197 196 136 364 343 342 197 136 14 198 137 15 365 87 81 198 138 137 365 343 364 365 81 344 365 344 343 366 346 347 199 198 15 366 74 80 199 138 198 199 139 138 366 80 346 367 366 347 200 139 199 367 347 348 201 27 142 368 99 94 201 29 17 368 348 99 201 17 27 201 142 29 368 367 348 369 349 350 369 94 349 369 89 94 370 350 110 370 369 350 370 110 106 204 141 202 204 33 30 204 30 141 371 110 114 205 202 203 371 114 351 205 33 204 205 38 33 205 204 202 372 351 352 206 146 36 206 30 146 372 371 351 206 143 30 373 352 353 207 36 34 373 353 122 207 34 143 373 122 119 207 206 36 207 143 206 373 372 352 208 145 31 208 31 34 374 358 46 374 359 358 374 46 50 209 38 205 375 360 359 375 359 374 210 35 145 210 145 208 210 37 35 210 39 37 376 55 360 211 147 32 376 60 55 376 360 375 211 32 35 211 35 37 212 34 36 377 361 60 377 60 63 212 36 40 377 362 361 212 40 151 378 72 362 213 212 151 68 4 5 213 34 212 378 362 377 378 77 72 379 74 366 214 147 211 214 41 147 379 366 367 379 70 74 214 44 41 380 367 368 380 379 367 215 213 151 381 363 66 381 66 72 216 38 209 216 43 38 217 45 148 382 380 368 217 148 38 217 38 153 382 94 89 218 42 215 382 368 94 218 215 151 218 46 42 218 50 46 219 40 45 383 363 381 383 364 363 219 151 40 384 364 383 384 91 87 220 51 43 384 87 365 220 154 51 384 365 364 220 43 216 221 45 217 221 217 153 385 369 370 221 49 45 385 84 89 221 153 49 222 44 47 385 89 369 222 150 149 386 385 370 386 370 106 222 149 44 223 150 222 386 106 103 223 152 150 387 110 371 224 218 151 224 50 218 387 106 110 224 151 219 224 54 50 388 387 371 225 53 152 388 371 372 225 57 53 225 152 223 389 119 115 389 388 372 389 373 119 389 372 373 226 159 156 390 50 54 390 374 50 390 375 374 227 226 3 78 25 24 227 159 226 391 375 390 227 160 159 228 49 56 228 56 163 391 376 375 392 376 391 229 227 3 229 3 162 229 160 227 229 162 160 230 158 51 230 51 161 393 376 392 230 61 158 393 63 60 393 69 63 231 23 22 393 60 376 231 22 157 231 65 23 231 157 53 394 377 63 394 63 69 394 378 377 232 67 61 395 64 70 232 161 67 395 70 379 232 230 161 232 61 230 233 70 64 395 379 380 233 228 163 396 82 77 396 378 394 396 77 378 234 61 67 234 163 56 234 56 61 397 395 380 83 5 6 397 380 382 235 163 234 235 234 67 398 397 382 236 163 235 399 382 89 399 84 79 399 89 84 399 398 382 237 65 71 238 80 74 238 70 233 238 236 80 400 381 72 238 74 70 238 233 163 238 163 236 400 72 77 239 5 83 401 385 386 239 164 68 239 83 164 401 79 84 239 68 5 401 84 385 240 76 168 240 67 76 402 381 400 402 383 381 403 384 383 241 166 237 403 91 384 241 237 71 403 96 91 241 75 81 403 383 402 241 71 75 242 90 86 242 95 90 404 401 386 242 168 95 404 386 103 242 240 168 404 103 97 405 106 387 243 166 241 243 241 81 244 166 243 405 103 106 245 92 85 245 85 166 406 387 388 245 98 92 245 166 244 245 244 98 406 405 387 246 87 91 407 389 115 407 406 388 407 388 389 407 115 111 408 54 59 408 391 390 247 90 95 408 390 54 247 95 101 408 392 391 247 101 174 248 246 172 248 172 105 409 408 59 248 105 98 249 92 98 409 392 408 249 98 176 410 69 393 410 392 409 250 172 246 410 409 73 410 393 392 410 73 69 411 395 397 250 91 96 411 397 398 411 64 395 250 96 102 250 246 91 411 59 64 251 113 108 251 174 113 412 411 398 251 247 174 412 73 409 412 409 59 252 249 176 412 59 411 252 109 171 413 394 69 252 92 249 413 396 394 252 171 92 252 176 109 253 250 102 413 69 73 414 79 73 414 399 79 253 172 250 414 398 399 414 412 398 254 1 173 414 73 412 415 88 82 254 173 175 415 82 396 415 396 413 255 172 253 416 73 79 416 79 401 256 254 175 416 401 404 256 1 254 417 400 77 257 116 112 257 255 116 417 77 82 257 172 255 417 82 88 257 112 105 257 105 172 258 179 181 258 108 179 418 416 404 418 97 93 418 404 97 258 104 108 259 181 182 419 400 417 259 258 181 420 400 419 260 1 256 260 256 175 420 402 400 260 177 180 260 175 177 421 402 420 421 420 102 421 96 403 261 107 111 421 403 402 421 102 96 261 111 115 422 97 103 262 182 121 422 93 97 422 103 405 262 121 118 262 259 182 423 422 405 263 107 261 263 261 184 264 112 116 264 178 112 264 123 178 424 405 406 424 423 405 265 263 184 266 115 119 425 424 406 425 111 107 425 406 407 266 184 261 425 407 111 266 261 115 267 184 125 426 73 416 267 265 184 426 413 73 267 125 120 267 116 265 267 120 116 427 415 413 427 413 426 428 416 418 428 426 416 268 183 117 428 427 426 429 418 93 429 428 418 269 120 187 429 427 428 429 93 88 269 116 120 429 88 415 429 415 427 270 117 123 430 419 417 270 268 117 271 184 266 271 125 184 430 417 88 271 129 125 431 93 422 431 88 93 272 10 11 431 430 88 272 121 186 431 422 423 272 186 10 432 430 431 432 419 430 272 11 130 432 431 423 273 122 126 433 420 419 273 126 127 433 419 432 433 102 420 434 423 424 434 424 425 434 432 423 434 433 432 434 102 433 274 273 188 434 107 102 434 425 107 274 122 273 275 274 188 276 188 133 276 133 131 276 131 129 276 129 275 276 275 188 277 127 130 277 273 127 277 188 273 278 123 128 279 129 131 279 189 129 280 134 189 280 131 191 280 189 279 280 191 134 280 279 131 281 278 128 281 134 193 281 128 132 281 132 134 282 278 281 283 281 193 283 282 281 284 195 196 285 284 196 285 2 284 285 197 2 285 196 197 286 203 202 286 141 140 286 199 15 286 200 199 286 139 200 286 202 141 286 140 139 287 210 208 288 34 213 288 213 215 288 287 208 288 208 34 289 215 42 289 288 215 289 287 288 289 39 210 289 210 287 289 42 39 124 9 10 291 37 39 291 211 37 292 211 291 292 214 211 

TShapes 10
Ve
1e-07
1.83697019872103e-16 -4.49927934798557e-32 3
0 0

0101101
*
Ed
 1e-07 1 1 1
2  1 1 0 0 6.28318530717959
6  1 1 0
0

0101100
+10 0 -10 0 *
Ve
1e-07
1.83697019872103e-16 -4.49927934798557e-32 -3
0 0

0101101
*
Ed
 1e-07 1 1 0
1  1 0 4.71238898038469 7.85398163397448
3  2 3CN 1 0 4.71238898038469 7.85398163397448
7  2 3 1 0
0

0101000
-10 0 +8 0 *
Ed
 1e-07 1 1 1
2  4 1 0 0 6.28318530717959
6  4 1 0
0

0101100
+8 0 -8 0 *
Wi

0101000
-9 0 +7 0 +6 0 -7 0 *
Fa
0  1e-07 1 0
2  1
0101000
+5 0 *
Sh

0101100
+4 0 *
So

0100100
+3 0 *
Co

1100000
+2 1 *

+1 0 